<svg xmlns="http://www.w3.org/2000/svg" viewBox="0 0 60 98" width="60mm" height="98mm"><style>text.kn{font-family:sans-serif;font-size:2.6px;text-anchor:middle;fill:#888;stroke:#fff;stroke-width:0.7;paint-order:stroke fill}text.fs{font-family:sans-serif;font-size:4px;text-anchor:middle;fill:#aaa}text.orlab{font-family:sans-serif;font-size:2.2px;font-weight:bold;text-anchor:middle;fill:#444}</style><rect x="0.6" y="0.6" width="58.8" height="96.8" rx="3.5" fill="#fff" stroke="#222" stroke-width="0.5"/><g><circle cx="15" cy="11" r="4" fill="#fff" stroke="#000" stroke-width="0.4"/></g><line x1="15" y1="11" x2="15.000" y2="4.000" stroke="#6A1B9A" stroke-width="0.35" stroke-linecap="round"/><circle cx="15.000" cy="4.000" r="0.4" fill="#6A1B9A"/><line x1="15" y1="11" x2="17.958" y2="4.656" stroke="#E65100" stroke-width="0.35" stroke-linecap="round" stroke-dasharray="0.45 0.75"/><circle cx="17.958" cy="4.656" r="0.4" fill="#E65100"/><line x1="15" y1="11" x2="13.784" y2="4.106" stroke="#1565C0" stroke-width="0.40" stroke-linecap="round" stroke-dasharray="0 1.2"/><circle cx="13.784" cy="4.106" r="0.4" fill="#1565C0"/><text x="15" y="11.95" class="kn">1</text><g><circle cx="30" cy="11" r="4" fill="#fff" stroke="#000" stroke-width="0.4"/></g><line x1="30" y1="11" x2="33.500" y2="17.062" stroke="#6A1B9A" stroke-width="0.35" stroke-linecap="round"/><circle cx="33.500" cy="17.062" r="0.4" fill="#6A1B9A"/><line x1="30" y1="11" x2="24.096" y2="14.761" stroke="#E65100" stroke-width="0.35" stroke-linecap="round" stroke-dasharray="0.45 0.75"/><circle cx="24.096" cy="14.761" r="0.4" fill="#E65100"/><line x1="30" y1="11" x2="23.682" y2="14.014" stroke="#1565C0" stroke-width="0.40" stroke-linecap="round" stroke-dasharray="0 1.2"/><circle cx="23.682" cy="14.014" r="0.4" fill="#1565C0"/><text x="30" y="11.95" class="kn">2</text><g><circle cx="45" cy="11" r="4" fill="#fff" stroke="#000" stroke-width="0.4"/></g><line x1="45" y1="11" x2="45.000" y2="4.000" stroke="#6A1B9A" stroke-width="0.35" stroke-linecap="round"/><circle cx="45.000" cy="4.000" r="0.4" fill="#6A1B9A"/><line x1="45" y1="11" x2="45.000" y2="4.000" stroke="#E65100" stroke-width="0.35" stroke-linecap="round" stroke-dasharray="0.45 0.75"/><circle cx="45.000" cy="4.000" r="0.4" fill="#E65100"/><line x1="45" y1="11" x2="45.000" y2="4.000" stroke="#1565C0" stroke-width="0.40" stroke-linecap="round" stroke-dasharray="0 1.2"/><circle cx="45.000" cy="4.000" r="0.4" fill="#1565C0"/><text x="45" y="11.95" class="kn">3</text><g><circle cx="15" cy="32" r="4" fill="#fff" stroke="#000" stroke-width="0.4"/></g><line x1="15" y1="32" x2="15.000" y2="25.000" stroke="#6A1B9A" stroke-width="0.35" stroke-linecap="round"/><circle cx="15.000" cy="25.000" r="0.4" fill="#6A1B9A"/><line x1="15" y1="32" x2="18.340" y2="25.848" stroke="#E65100" stroke-width="0.35" stroke-linecap="round" stroke-dasharray="0.45 0.75"/><circle cx="18.340" cy="25.848" r="0.4" fill="#E65100"/><line x1="15" y1="32" x2="11.500" y2="38.062" stroke="#1565C0" stroke-width="0.40" stroke-linecap="round" stroke-dasharray="0 1.2"/><circle cx="11.500" cy="38.062" r="0.4" fill="#1565C0"/><text x="15" y="32.95" class="kn">4</text><g><circle cx="30" cy="32" r="4" fill="#fff" stroke="#000" stroke-width="0.4"/></g><line x1="30" y1="32" x2="26.500" y2="38.062" stroke="#6A1B9A" stroke-width="0.35" stroke-linecap="round"/><circle cx="26.500" cy="38.062" r="0.4" fill="#6A1B9A"/><line x1="30" y1="32" x2="23.819" y2="35.286" stroke="#E65100" stroke-width="0.35" stroke-linecap="round" stroke-dasharray="0.45 0.75"/><circle cx="23.819" cy="35.286" r="0.4" fill="#E65100"/><line x1="30" y1="32" x2="26.500" y2="38.062" stroke="#1565C0" stroke-width="0.40" stroke-linecap="round" stroke-dasharray="0 1.2"/><circle cx="26.500" cy="38.062" r="0.4" fill="#1565C0"/><text x="30" y="32.95" class="kn">5</text><g><circle cx="45" cy="32" r="4" fill="#fff" stroke="#000" stroke-width="0.4"/></g><line x1="45" y1="32" x2="41.500" y2="38.062" stroke="#6A1B9A" stroke-width="0.35" stroke-linecap="round"/><circle cx="41.500" cy="38.062" r="0.4" fill="#6A1B9A"/><line x1="45" y1="32" x2="45.000" y2="25.000" stroke="#E65100" stroke-width="0.35" stroke-linecap="round" stroke-dasharray="0.45 0.75"/><circle cx="45.000" cy="25.000" r="0.4" fill="#E65100"/><line x1="45" y1="32" x2="41.500" y2="25.938" stroke="#1565C0" stroke-width="0.40" stroke-linecap="round" stroke-dasharray="0 1.2"/><circle cx="41.500" cy="25.938" r="0.4" fill="#1565C0"/><text x="45" y="32.95" class="kn">6</text><rect x="13" y="45" width="4" height="12" rx="1" fill="#f0f0f0" stroke="#000" stroke-width="0.35"/><line x1="17" y1="47" x2="18" y2="47" stroke="#888" stroke-width="0.25"/><line x1="17" y1="51" x2="18" y2="51" stroke="#888" stroke-width="0.25"/><line x1="17" y1="55" x2="18" y2="55" stroke="#888" stroke-width="0.25"/><text x="15" y="59.8" class="kn">T1</text><circle cx="21.000" cy="51.000" r="1.20" fill="#6A1B9A" stroke="#111" stroke-width="0.18"/><rect x="28" y="45" width="4" height="12" rx="1" fill="#f0f0f0" stroke="#000" stroke-width="0.35"/><line x1="32" y1="47" x2="33" y2="47" stroke="#888" stroke-width="0.25"/><line x1="32" y1="51" x2="33" y2="51" stroke="#888" stroke-width="0.25"/><line x1="32" y1="55" x2="33" y2="55" stroke="#888" stroke-width="0.25"/><text x="30" y="59.8" class="kn">T2</text><circle cx="36.000" cy="47.000" r="1.20" fill="#6A1B9A" stroke="#111" stroke-width="0.18"/><circle cx="36.000" cy="55.000" r="1.20" fill="#6A1B9A" stroke="#111" stroke-width="0.18"/><text x="36.00" y="51.70" class="orlab">OR</text><rect x="43" y="45" width="4" height="12" rx="1" fill="#f0f0f0" stroke="#000" stroke-width="0.35"/><line x1="47" y1="47" x2="48" y2="47" stroke="#888" stroke-width="0.25"/><line x1="47" y1="51" x2="48" y2="51" stroke="#888" stroke-width="0.25"/><line x1="47" y1="55" x2="48" y2="55" stroke="#888" stroke-width="0.25"/><text x="45" y="59.8" class="kn">T3</text><circle cx="51.000" cy="51.000" r="1.20" fill="#6A1B9A" stroke="#111" stroke-width="0.18"/><circle cx="15" cy="70" r="1.5" fill="#fff" stroke="#888" stroke-width="0.35"/><circle cx="45" cy="70" r="1.5" fill="#fff" stroke="#888" stroke-width="0.35"/><circle cx="15" cy="85" r="6" fill="#fafafa" stroke="#888" stroke-width="0.4"/><text x="15" y="86.6" class="fs">L</text><circle cx="45" cy="85" r="6" fill="#fafafa" stroke="#888" stroke-width="0.4"/><text x="45" y="86.6" class="fs">R</text></svg>